<?xml version="1.0" standalone="no"?>
<!DOCTYPE svg PUBLIC "-//W3C//DTD SVG 20010904//EN"
 "http://www.w3.org/TR/2001/REC-SVG-20010904/DTD/svg10.dtd">
<svg version="1.0" xmlns="http://www.w3.org/2000/svg"
 width="88.000000pt" height="88.000000pt" viewBox="0 0 88.000000 88.000000"
 preserveAspectRatio="xMidYMid meet">
<metadata>
Created by potrace 1.14, written by Peter Selinger 2001-2017
</metadata>
<g transform="translate(0.000000,88.000000) scale(0.100000,-0.100000)"
fill="#000000" stroke="none">
<path d="M69 859 c-67 -39 -69 -50 -69 -416 0 -306 1 -329 20 -368 36 -74 43
-75 423 -75 314 0 334 1 365 20 18 11 41 34 52 52 19 31 20 51 20 362 0 309
-1 332 -20 371 -36 74 -43 75 -423 75 -319 0 -333 -1 -368 -21z"/>
</g>
</svg>
